<?xml version="1.0" standalone="no"?><!-- Generator: Gravit.io --><svg xmlns="http://www.w3.org/2000/svg" xmlns:xlink="http://www.w3.org/1999/xlink" style="isolation:isolate" viewBox="0 0.252 128 128" width="128" height="128"><defs><clipPath id="_clipPath_z8hqYAh8hMHtxDznM23QZmhw9lIM0GP6"><rect x="0" y="0.252" width="128" height="128"/></clipPath></defs><g clip-path="url(#_clipPath_z8hqYAh8hMHtxDznM23QZmhw9lIM0GP6)"><g><path d=" M 54.618 2.048 L 9.382 22.95 C 4.201 25.345 0 31.626 0 36.98 L 0 91.524 C 0 96.878 4.201 103.159 9.382 105.553 L 54.618 126.456 C 59.8 128.851 68.201 128.851 73.382 126.456 L 118.618 105.553 C 123.799 103.159 128 96.878 128 91.524 L 128 36.98 C 128 31.626 123.799 25.345 118.618 22.95 L 73.382 2.048 C 68.201 -0.347 59.8 -0.347 54.618 2.048 Z " fill-rule="evenodd" fill="rgb(255,202,40)"/><path d=" M 73.982 2.112 L 120.021 23.635 C 125.326 26.115 125.326 30.137 120.021 32.617 L 73.982 54.14 C 68.676 56.62 60.074 56.62 54.768 54.14 L 8.729 32.617 C 3.424 30.137 3.424 26.115 8.729 23.635 L 54.768 2.112 C 60.074 -0.368 68.676 -0.368 73.982 2.112 Z " fill-rule="evenodd" fill="rgb(255,168,40)"/><path d=" M 99.389 64.252 C 99.389 44.707 83.545 28.863 64 28.863 C 44.455 28.863 28.611 44.707 28.611 64.252 C 28.611 83.797 44.455 99.641 64 99.641 C 83.545 99.641 99.389 83.797 99.389 64.252 Z " fill-rule="evenodd" fill="rgb(255,255,255)" vector-effect="non-scaling-stroke" stroke-width="5" stroke="rgb(255,202,40)" stroke-linejoin="round" stroke-linecap="butt" stroke-miterlimit="4"/><path d=" M 73.54 59.252 C 71.727 57.039 69.487 55.932 66.82 55.932 C 65.647 55.932 64.56 56.145 63.56 56.572 C 62.56 56.999 61.7 57.579 60.98 58.312 C 60.26 59.045 59.693 59.919 59.28 60.932 C 58.867 61.945 58.66 63.039 58.66 64.212 C 58.66 65.412 58.867 66.519 59.28 67.532 C 59.693 68.545 60.267 69.425 61 70.172 C 61.733 70.919 62.593 71.505 63.58 71.932 C 64.567 72.359 65.633 72.572 66.78 72.572 C 69.287 72.572 71.54 71.505 73.54 69.372 L 73.54 78.652 L 72.74 78.932 C 71.54 79.359 70.42 79.672 69.38 79.872 C 68.34 80.072 67.313 80.172 66.3 80.172 C 64.22 80.172 62.227 79.779 60.32 78.992 C 58.413 78.205 56.733 77.099 55.28 75.672 C 53.827 74.245 52.66 72.552 51.78 70.592 C 50.9 68.632 50.46 66.492 50.46 64.172 C 50.46 61.852 50.893 59.725 51.76 57.792 C 52.627 55.859 53.787 54.192 55.24 52.792 C 56.693 51.392 58.38 50.299 60.3 49.512 C 62.22 48.725 64.233 48.332 66.34 48.332 C 67.54 48.332 68.72 48.459 69.88 48.712 C 71.04 48.965 72.26 49.359 73.54 49.892 L 73.54 59.252 Z " fill-rule="evenodd" fill="rgb(255,202,40)"/></g></g></svg>